<?xml version="1.0" encoding="UTF-8"?>
<svg width="20px" height="15px" viewBox="0 0 20 15" version="1.1" xmlns="http://www.w3.org/2000/svg" xmlns:xlink="http://www.w3.org/1999/xlink">
    <title>arrow</title>
    <defs>
        <filter id="filter-1">
            <feColorMatrix in="SourceGraphic" type="matrix" values="0 0 0 0 0.039216 0 0 0 0 0.117647 0 0 0 0 0.309804 0 0 0 1.000000 0"></feColorMatrix>
        </filter>
    </defs>
    <g id="Symbols" stroke="none" stroke-width="1" fill="none" fill-rule="evenodd">
        <g id="arrow" transform="translate(-170.000000, -21.000000)" filter="url(#filter-1)">
            <g transform="translate(180.000000, 28.500000) scale(-1, 1) translate(-180.000000, -28.500000) translate(170.000000, 21.000000)">
                <path d="M18.4,6.75 L2.4404,6.75 L8.5516,1.293 C8.8716,1.00725 8.884,0.5325 8.5792,0.2325 C8.2748,-0.067125 7.7684,-0.079125 7.448,0.206625 L0.4688,6.439125 C0.1668,6.722625 -1.42108547e-15,7.099125 -1.42108547e-15,7.5 C-1.42108547e-15,7.9005 0.1668,8.277375 0.4828,8.57325 L7.4484,14.793 C7.6032,14.931375 7.8016,15 8,15 C8.2112,15 8.4224,14.922 8.5796,14.767125 C8.8844,14.467125 8.872,13.99275 8.552,13.707 L2.4152,8.25 L18.4,8.25 C18.8416,8.25 19.2,7.914 19.2,7.5 C19.2,7.086 18.8416,6.75 18.4,6.75 L18.4,6.75 Z" id="Path" fill="#FFFFFF" fill-rule="nonzero"></path>
            </g>
        </g>
    </g>
</svg>