<?xml version="1.0" encoding="UTF-8"?>
<svg width="20px" height="20px" viewBox="0 0 20 20" version="1.1" xmlns="http://www.w3.org/2000/svg" xmlns:xlink="http://www.w3.org/1999/xlink">
    <title>search</title>
    <g id="Symbols" stroke="none" stroke-width="1" fill="none" fill-rule="evenodd">
        <g id="Header" transform="translate(-922.000000, -47.000000)" fill="#1F3262" fill-rule="nonzero" stroke="#1F3262" stroke-width="0.5">
            <g id="Nav">
                <g id="icons" transform="translate(923.000000, 46.000000)">
                    <g id="search" transform="translate(0.000000, 2.000000)">
                        <path d="M7.92682031,0 C3.55608984,0 0,3.55608984 0,7.92682031 C0,12.2977969 3.55608984,15.8536406 7.92682031,15.8536406 C12.2977969,15.8536406 15.8536406,12.2977969 15.8536406,7.92682031 C15.8536406,3.55608984 12.2977969,0 7.92682031,0 Z M7.92682031,14.3902617 C4.36292578,14.3902617 1.46341406,11.49075 1.46341406,7.92685547 C1.46341406,4.36296094 4.36292578,1.46341406 7.92682031,1.46341406 C11.4907148,1.46341406 14.3902266,4.36292578 14.3902266,7.92682031 C14.3902266,11.4907148 11.4907148,14.3902617 7.92682031,14.3902617 Z" id="Shape"></path>
                        <path d="M17.7856172,16.7509687 L13.5904922,12.5558438 C13.3046367,12.2699883 12.8416992,12.2699883 12.5558438,12.5558438 C12.2699883,12.8414521 12.2699883,13.3048828 12.5558438,13.5904922 L16.7509688,17.7856172 C16.8938789,17.9285273 17.0809805,18 17.268293,18 C17.4553594,18 17.6426719,17.9285273 17.7856172,17.7856172 C18.0714727,17.5000078 18.0714727,17.0365781 17.7856172,16.7509687 Z" id="Path"></path>
                    </g>
                </g>
            </g>
        </g>
    </g>
</svg>