<?xml version="1.0" encoding="UTF-8"?>
<svg width="15px" height="15px" viewBox="0 0 15 15" version="1.1" xmlns="http://www.w3.org/2000/svg" xmlns:xlink="http://www.w3.org/1999/xlink">
    <title>search</title>
    <defs>
        <filter id="filter-1">
            <feColorMatrix in="SourceGraphic" type="matrix" values="0 0 0 0 1.000000 0 0 0 0 1.000000 0 0 0 0 1.000000 0 0 0 1.000000 0"></feColorMatrix>
        </filter>
    </defs>
    <g id="Symbols" stroke="none" stroke-width="1" fill="none" fill-rule="evenodd">
        <g id="icons" transform="translate(-1670.000000, -10.000000)" filter="url(#filter-1)">
            <g transform="translate(1671.000000, 10.000000)">
                <g id="search" transform="translate(0.000000, 1.000000)" fill="#1F3262" fill-rule="nonzero" stroke="#1F3262" stroke-width="0.5">
                    <path d="M5.72492578,0 C2.56828711,0 0,2.56828711 0,5.72492578 C0,8.88174219 2.56828711,11.4498516 5.72492578,11.4498516 C8.88174219,11.4498516 11.4498516,8.88174219 11.4498516,5.72492578 C11.4498516,2.56828711 8.88174219,0 5.72492578,0 Z M5.72492578,10.3929668 C3.15100195,10.3929668 1.05691016,8.298875 1.05691016,5.72495117 C1.05691016,3.15102734 3.15100195,1.05691016 5.72492578,1.05691016 C8.29884961,1.05691016 10.3929414,3.15100195 10.3929414,5.72492578 C10.3929414,8.29884961 8.29884961,10.3929668 5.72492578,10.3929668 Z" id="Shape"></path>
                    <path d="M12.845168,12.0979219 L9.81535547,9.06810938 C9.6089043,8.8616582 9.27456055,8.8616582 9.06810938,9.06810938 C8.8616582,9.27438281 8.8616582,9.60908203 9.06810938,9.81535547 L12.0979219,12.845168 C12.2011348,12.9483809 12.3362637,13 12.4715449,13 C12.6066484,13 12.7419297,12.9483809 12.845168,12.845168 C13.0516191,12.6388945 13.0516191,12.3041953 12.845168,12.0979219 Z" id="Path"></path>
                </g>
            </g>
        </g>
    </g>
</svg>