<?xml version="1.0" encoding="UTF-8"?>
<svg width="16px" height="12px" viewBox="0 0 16 12" version="1.1" xmlns="http://www.w3.org/2000/svg" xmlns:xlink="http://www.w3.org/1999/xlink">
    <title>right-arrow-white</title>
    <defs>
        <filter id="filter-1">
            <feColorMatrix in="SourceGraphic" type="matrix" values="0 0 0 0 1.000000 0 0 0 0 1.000000 0 0 0 0 1.000000 0 0 0 1.000000 0"></feColorMatrix>
        </filter>
    </defs>
    <g id="Page-1" stroke="none" stroke-width="1" fill="none" fill-rule="evenodd">
        <g id="News-collective" transform="translate(-342.000000, -1129.000000)">
            <g id="Filter" transform="translate(192.000000, 773.000000)">
                <g id="ghost-button_a" transform="translate(23.000000, 337.000000)">
                    <g id="right-arrow" transform="translate(127.670886, 19.642857)" filter="url(#filter-1)">
                        <g transform="translate(0.000000, 0.000000)">
                            <path d="M14.7080506,4.85764808 L9.31017722,0.214337979 C9.15609114,0.0817944251 8.95072405,0.00904181185 8.73174684,0.00904181185 C8.51252658,0.00904181185 8.30728101,0.0818989547 8.15319494,0.214337979 L7.66310886,0.636010453 C7.5091443,0.768344948 7.42432405,0.94510453 7.42432405,1.13357143 C7.42432405,1.3219338 7.5091443,1.50465157 7.66310886,1.63698606 L10.8121519,4.35172474 L0.807493671,4.35172474 C0.35641519,4.35172474 0,4.6554878 0,5.04360627 L0,5.63973868 C0,6.02785714 0.35641519,6.36224739 0.807493671,6.36224739 L10.8478785,6.36224739 L7.66323038,9.09214286 C7.50926582,9.22468641 7.42444557,9.39663763 7.42444557,9.58510453 C7.42444557,9.77336237 7.50926582,9.9478223 7.66323038,10.0802613 L8.15331646,10.5005749 C8.30740253,10.6331185 8.5126481,10.7053484 8.73186835,10.7053484 C8.95084557,10.7053484 9.15621266,10.6321777 9.31029873,10.4996341 L14.7081722,5.85642857 C14.8626228,5.7234669 14.9475646,5.54597561 14.9469602,5.35729965 C14.947443,5.16799652 14.8626228,4.9904007 14.7080506,4.85764808 Z" id="Path" fill="#000000" fill-rule="nonzero"></path>
                        </g>
                    </g>
                </g>
            </g>
        </g>
    </g>
</svg>